<svg id="Layer_1" data-name="Layer 1" xmlns="http://www.w3.org/2000/svg" viewBox="0 0 256 308.93"><defs><style>.cls-1{fill:#fff;}</style></defs><path class="cls-1" d="M233.89,85.78l-7.26,25.77a6.8,6.8,0,0,1-8.37,4.69L46.37,67.8a6.79,6.79,0,0,1-4.68-8.37L49,33.67A6.78,6.78,0,0,1,57.31,29L109.9,43.8l.36-1.27a6.78,6.78,0,0,1,8.36-4.68L172.28,53A6.78,6.78,0,0,1,177,61.33l-.36,1.27L229.2,77.42A6.78,6.78,0,0,1,233.89,85.78Z"/><path class="cls-1" d="M207,116.49H48.75A6.78,6.78,0,0,0,42,123.27V300.46a6.78,6.78,0,0,0,6.78,6.78H207a6.78,6.78,0,0,0,6.77-6.78V123.27A6.78,6.78,0,0,0,207,116.49ZM95.66,282.85a6.77,6.77,0,0,1-6.78,6.77h-6.3a6.77,6.77,0,0,1-6.78-6.77v-142a6.78,6.78,0,0,1,6.78-6.78h6.3a6.78,6.78,0,0,1,6.78,6.78Zm42.13,0a6.77,6.77,0,0,1-6.78,6.77H124.7a6.77,6.77,0,0,1-6.77-6.77v-142a6.78,6.78,0,0,1,6.77-6.78H131a6.78,6.78,0,0,1,6.78,6.78Zm42.12,0a6.77,6.77,0,0,1-6.77,6.77h-6.31a6.78,6.78,0,0,1-6.78-6.77v-142a6.79,6.79,0,0,1,6.78-6.78h6.31a6.78,6.78,0,0,1,6.77,6.78Z"/></svg>