<svg id="Layer_1" data-name="Layer 1" xmlns="http://www.w3.org/2000/svg" viewBox="0 0 256 308.93"><defs><style>.cls-1{fill:#fff;}</style></defs><path class="cls-1" d="M223.93,69.21V96a6.79,6.79,0,0,1-6.78,6.78H38.56A6.78,6.78,0,0,1,31.79,96V69.21a6.78,6.78,0,0,1,6.77-6.78H93.2V61.11A6.78,6.78,0,0,1,100,54.34h55.75a6.77,6.77,0,0,1,6.78,6.77v1.32h54.64A6.79,6.79,0,0,1,223.93,69.21Z"/><path class="cls-1" d="M207,116.49H48.75A6.78,6.78,0,0,0,42,123.27V300.46a6.78,6.78,0,0,0,6.78,6.78H207a6.78,6.78,0,0,0,6.77-6.78V123.27A6.78,6.78,0,0,0,207,116.49ZM95.66,282.85a6.77,6.77,0,0,1-6.78,6.77h-6.3a6.77,6.77,0,0,1-6.78-6.77v-142a6.78,6.78,0,0,1,6.78-6.78h6.3a6.78,6.78,0,0,1,6.78,6.78Zm42.13,0a6.77,6.77,0,0,1-6.78,6.77H124.7a6.77,6.77,0,0,1-6.77-6.77v-142a6.78,6.78,0,0,1,6.77-6.78H131a6.78,6.78,0,0,1,6.78,6.78Zm42.12,0a6.77,6.77,0,0,1-6.77,6.77h-6.31a6.78,6.78,0,0,1-6.78-6.77v-142a6.79,6.79,0,0,1,6.78-6.78h6.31a6.78,6.78,0,0,1,6.77,6.78Z"/></svg>